<svg xmlns="http://www.w3.org/2000/svg"  viewBox="0 0 72 72" width="128px" height="128px"><path d="M 21.960938 14.099609 C 20.678938 14.099609 19.537094 14.914953 19.121094 16.126953 L 9.4023438 44.476562 C 9.0473438 45.515562 9.2853906 46.664609 10.025391 47.474609 L 18.666016 56.923828 C 19.234016 57.545828 20.038859 57.900391 20.880859 57.900391 L 32.220703 57.900391 C 33.470703 57.900391 34.590297 57.123125 35.029297 55.953125 L 35.769531 53.880859 L 35.882812 53.880859 L 37.921875 56.699219 C 38.487875 57.455219 39.376312 57.900391 40.320312 57.900391 L 51.119141 57.900391 C 52.396141 57.900391 53.534125 57.091766 53.953125 55.884766 L 62.59375 31.044922 C 62.83675 30.347922 62.812297 29.585297 62.529297 28.904297 L 57.130859 15.945312 C 56.664859 14.827312 55.570375 14.099609 54.359375 14.099609 L 45.179688 14.099609 C 43.999687 14.099609 42.927359 14.790188 42.443359 15.867188 L 40.810547 19.498047 L 39.546875 19.498047 L 35.855469 15.15625 C 35.285469 14.48625 34.450313 14.099609 33.570312 14.099609 L 21.960938 14.099609 z M 24.103516 20.099609 L 31.021484 20.099609 L 29.738281 24.748047 L 22.509766 24.748047 L 24.103516 20.099609 z M 47.119141 20.099609 L 51.671875 20.099609 L 48.957031 28.748047 L 45.515625 28.748047 L 46.472656 24.730469 C 46.543656 24.433469 46.474156 24.118906 46.285156 23.878906 C 46.112905 23.661326 45.857871 23.531209 45.583984 23.507812 L 47.119141 20.099609 z M 32.873047 20.912109 L 35.873047 24.443359 C 36.132286 24.748079 36.452384 24.98425 36.800781 25.162109 L 35.960938 28.748047 L 34.28125 28.748047 L 34.970703 25.992188 C 35.045703 25.693187 34.976109 25.377766 34.787109 25.134766 C 34.598109 24.891766 34.308 24.748047 34 24.748047 L 31.814453 24.748047 L 32.873047 20.912109 z M 53.162109 22.025391 L 56.550781 30.15625 L 49.576172 50.207031 L 45.859375 45.306641 L 53.162109 22.025391 z M 38.789062 25.5 L 42.75 25.5 L 44.234375 25.5 L 43.460938 28.75 L 38.015625 28.75 L 38.789062 25.5 z M 21.824219 26.748047 L 32.71875 26.748047 L 32.029297 29.505859 C 31.954297 29.804859 32.023891 30.120281 32.212891 30.363281 C 32.401891 30.606281 32.692 30.748047 33 30.748047 L 48.330078 30.748047 L 44.251953 43.748047 L 35.646484 43.748047 L 38.945312 34.072266 C 39.124312 33.549266 38.845266 32.980734 38.322266 32.802734 C 37.802266 32.623734 37.230734 32.904734 37.052734 33.427734 L 35.578125 37.75 L 28.441406 37.75 L 29.695312 34.072266 C 29.874312 33.549266 29.595266 32.982687 29.072266 32.804688 C 28.552266 32.625688 27.981734 32.904734 27.802734 33.427734 L 27.011719 35.751953 L 24.324219 35.751953 L 24.9375 34.097656 C 25.0515 33.791656 25.008312 33.448687 24.820312 33.179688 C 24.634312 32.910687 24.327 32.751953 24 32.751953 L 19.765625 32.751953 L 21.824219 26.748047 z M 19.080078 34.751953 L 22.564453 34.751953 L 20.5625 40.154297 C 20.4485 40.460297 20.491688 40.803266 20.679688 41.072266 C 20.865688 41.341266 21.173 41.501953 21.5 41.501953 L 25.052734 41.501953 L 24.285156 43.751953 L 15.994141 43.751953 L 19.080078 34.751953 z M 23.585938 37.75 L 26.330078 37.75 L 25.734375 39.5 L 22.9375 39.5 L 23.585938 37.75 z M 27.761719 39.751953 L 34.898438 39.751953 L 33.304688 44.427734 C 33.200688 44.733734 33.2495 45.069031 33.4375 45.332031 C 33.6255 45.594031 33.928 45.751953 34.25 45.751953 L 43.683594 45.751953 L 48.349609 51.900391 L 41.820312 51.900391 L 39.480469 48.779297 C 38.913469 48.023297 38.024078 47.580078 37.080078 47.580078 L 33.841797 47.580078 C 32.590797 47.580078 31.46925 48.355391 31.03125 49.525391 L 30.902344 49.867188 L 26.201172 44.326172 L 27.761719 39.751953 z M 16.582031 45.751953 L 24.787109 45.751953 L 30.003906 51.900391 L 22.203125 51.900391 L 16.582031 45.751953 z"/></svg>